<svg width="128" height="29" viewBox="0 0 128 29" fill="none" xmlns="http://www.w3.org/2000/svg">
<path d="M7.36 28.9C5.22667 28.9 3.61333 28.3 2.52 27.1C1.42667 25.8733 0.88 24.1267 0.88 21.86V20.26H5.04V22.18C5.04 23.9933 5.8 24.9 7.32 24.9C8.06667 24.9 8.62667 24.6867 9 24.26C9.4 23.8067 9.6 23.0867 9.6 22.1C9.6 20.9267 9.33333 19.9 8.8 19.02C8.26667 18.1133 7.28 17.0333 5.84 15.78C4.02667 14.18 2.76 12.74 2.04 11.46C1.32 10.1533 0.96 8.68667 0.96 7.06C0.96 4.84667 1.52 3.14 2.64 1.94C3.76 0.713332 5.38667 0.0999985 7.52 0.0999985C9.62667 0.0999985 11.2133 0.713332 12.28 1.94C13.3733 3.14 13.92 4.87333 13.92 7.14V8.3H9.76V6.86C9.76 5.9 9.57333 5.20667 9.2 4.78C8.82667 4.32667 8.28 4.1 7.56 4.1C6.09333 4.1 5.36 4.99333 5.36 6.78C5.36 7.79333 5.62667 8.74 6.16 9.62C6.72 10.5 7.72 11.5667 9.16 12.82C11 14.42 12.2667 15.8733 12.96 17.18C13.6533 18.4867 14 20.02 14 21.78C14 24.0733 13.4267 25.8333 12.28 27.06C11.16 28.2867 9.52 28.9 7.36 28.9ZM16.5228 0.499998H28.5228V4.5H20.9228V11.9H26.9628V15.9H20.9228V24.5H28.5228V28.5H16.5228V0.499998ZM31.0541 0.499998H37.5741C39.8407 0.499998 41.4941 1.03333 42.5341 2.1C43.5741 3.14 44.0941 4.75333 44.0941 6.94V8.66C44.0941 11.5667 43.1341 13.4067 41.2141 14.18V14.26C42.2807 14.58 43.0274 15.2333 43.4541 16.22C43.9074 17.2067 44.1341 18.5267 44.1341 20.18V25.1C44.1341 25.9 44.1607 26.5533 44.2141 27.06C44.2674 27.54 44.4007 28.02 44.6141 28.5H40.1341C39.9741 28.0467 39.8674 27.62 39.8141 27.22C39.7607 26.82 39.7341 26.1 39.7341 25.06V19.94C39.7341 18.66 39.5207 17.7667 39.0941 17.26C38.6941 16.7533 37.9874 16.5 36.9741 16.5H35.4541V28.5H31.0541V0.499998ZM37.0541 12.5C37.9341 12.5 38.5874 12.2733 39.0141 11.82C39.4674 11.3667 39.6941 10.6067 39.6941 9.54V7.38C39.6941 6.36667 39.5074 5.63333 39.1341 5.18C38.7874 4.72667 38.2274 4.5 37.4541 4.5H35.4541V12.5H37.0541ZM45.8706 0.499998H50.3106L53.1906 22.22H53.2706L56.1506 0.499998H60.1906L55.9506 28.5H50.1106L45.8706 0.499998ZM62.3041 0.499998H66.7041V28.5H62.3041V0.499998ZM73.4394 4.5H68.8394V0.499998H82.4394V4.5H77.8394V28.5H73.4394V4.5ZM84.5697 0.499998H96.5697V4.5H88.9697V11.9H95.0097V15.9H88.9697V24.5H96.5697V28.5H84.5697V0.499998ZM105.301 28.9C103.194 28.9 101.581 28.3 100.461 27.1C99.3676 25.9 98.8209 24.2067 98.8209 22.02V6.98C98.8209 4.79333 99.3676 3.1 100.461 1.9C101.581 0.699999 103.194 0.0999985 105.301 0.0999985C107.408 0.0999985 109.008 0.699999 110.101 1.9C111.221 3.1 111.781 4.79333 111.781 6.98V9.94H107.621V6.7C107.621 4.96667 106.888 4.1 105.421 4.1C103.954 4.1 103.221 4.96667 103.221 6.7V22.34C103.221 24.0467 103.954 24.9 105.421 24.9C106.888 24.9 107.621 24.0467 107.621 22.34V18.06H111.781V22.02C111.781 24.2067 111.221 25.9 110.101 27.1C109.008 28.3 107.408 28.9 105.301 28.9ZM114.413 0.499998H118.813V11.9H123.533V0.499998H127.933V28.5H123.533V15.9H118.813V28.5H114.413V0.499998Z" fill="url(#paint0_linear_258_711)"/>
<defs>
<linearGradient id="paint0_linear_258_711" x1="549.788" y1="380.5" x2="32.0564" y2="91.0391" gradientUnits="userSpaceOnUse">
<stop offset="0.35" stop-color="white"/>
<stop offset="0.76" stop-color="white"/>
<stop offset="0.9996" stop-color="white"/>
<stop offset="0.9997" stop-color="#333333"/>
<stop offset="0.9998" stop-color="#999999"/>
<stop offset="0.9999" stop-color="#E7C400"/>
</linearGradient>
</defs>
</svg>
